<svg width="38" height="38" viewBox="0 0 38 38" fill="none" xmlns="http://www.w3.org/2000/svg">
<path d="M30.1623 7.77417C28.7105 6.30817 26.9814 5.14578 25.0758 4.35474C23.1703 3.5637 21.1263 3.15983 19.0631 3.16667C10.4181 3.16667 3.37227 10.2125 3.37227 18.8575C3.37227 21.6283 4.10061 24.32 5.46227 26.695L3.24561 34.8333L11.5581 32.6483C13.8539 33.8992 16.4348 34.5642 19.0631 34.5642C27.7081 34.5642 34.7539 27.5183 34.7539 18.8733C34.7539 14.6775 33.1231 10.735 30.1623 7.77417ZM19.0631 31.9042C16.7198 31.9042 14.4239 31.2708 12.4131 30.0833L11.9381 29.7983L6.99811 31.0967L8.31227 26.2833L7.99561 25.7925C6.69339 23.7137 6.00207 21.3105 6.00061 18.8575C6.00061 11.6692 11.8589 5.81083 19.0473 5.81083C22.5306 5.81083 25.8081 7.1725 28.2623 9.6425C29.4777 10.852 30.4408 12.2907 31.0958 13.8753C31.7509 15.4598 32.0848 17.1587 32.0781 18.8733C32.1098 26.0617 26.2514 31.9042 19.0631 31.9042ZM26.2198 22.1508C25.8239 21.9608 23.8923 21.0108 23.5439 20.8683C23.1798 20.7417 22.9264 20.6783 22.6573 21.0583C22.3881 21.4542 21.6439 22.3408 21.4223 22.5942C21.2006 22.8633 20.9631 22.895 20.5673 22.6892C20.1714 22.4992 18.9048 22.0717 17.4164 20.7417C16.2448 19.6967 15.4689 18.4142 15.2314 18.0183C15.0098 17.6225 15.1998 17.4167 15.4056 17.2108C15.5798 17.0367 15.8014 16.7517 15.9914 16.53C16.1814 16.3083 16.2606 16.1342 16.3873 15.8808C16.5139 15.6117 16.4506 15.39 16.3556 15.2C16.2606 15.01 15.4689 13.0783 15.1523 12.2867C14.8356 11.5267 14.5031 11.6217 14.2656 11.6058H13.5056C13.2364 11.6058 12.8248 11.7008 12.4606 12.0967C12.1123 12.4925 11.0989 13.4425 11.0989 15.3742C11.0989 17.3058 12.5081 19.1742 12.6981 19.4275C12.8881 19.6967 15.4689 23.655 19.3956 25.3492C20.3298 25.7608 21.0581 25.9983 21.6281 26.1725C22.5623 26.4733 23.4173 26.4258 24.0981 26.3308C24.8581 26.22 26.4256 25.3808 26.7423 24.4625C27.0748 23.5442 27.0748 22.7683 26.9639 22.5942C26.8531 22.42 26.6156 22.3408 26.2198 22.1508Z" fill="black"/>
</svg>
